<svg width="29" height="40" viewBox="0 0 29 40" fill="none" xmlns="http://www.w3.org/2000/svg">
<path d="M12.7084 31.3389V35.3333H9.12502V39.1666H19.875V35.3333H16.2917V31.3389C21.9569 30.5684 26.7711 26.2406 28.3191 20.2357C28.7921 18.411 28.8781 16.3448 28.5754 14.0908L27.0238 2.47775C26.9625 2.0212 26.7495 1.60358 26.4237 1.30151C26.0979 0.999446 25.6812 0.83319 25.25 0.833252H3.75002C3.31888 0.83319 2.90217 0.999446 2.57636 1.30151C2.25055 1.60358 2.03749 2.0212 1.97627 2.47775L0.426479 14.0889C0.123687 16.3448 0.209687 18.411 0.682687 20.2338C2.2289 26.2406 7.0431 30.5684 12.7084 31.3389ZM23.6966 4.66659L24.7179 12.3333H4.28035L5.30339 4.66659H23.6966Z" fill="#FF6B00"/>
</svg>
