<svg width="29" height="36" viewBox="0 0 29 36" fill="none" xmlns="http://www.w3.org/2000/svg">
<path d="M12.7915 28.353V32H9.3748V35.5H19.6248V32H16.2081V28.353C21.6099 27.6495 26.2002 23.698 27.6762 18.2153C28.1272 16.5493 28.2092 14.6627 27.9205 12.6047L26.4411 2.0015C26.3827 1.58465 26.1795 1.20335 25.8689 0.927544C25.5582 0.651743 25.1609 0.499944 24.7498 0.5H4.2498C3.83871 0.499944 3.44139 0.651743 3.13074 0.927544C2.82008 1.20335 2.61693 1.58465 2.55855 2.0015L1.08085 12.603C0.792137 14.6628 0.874137 16.5492 1.32514 18.2135C2.79943 23.698 7.38972 27.6495 12.7915 28.353ZM23.2687 4L24.2424 11H4.75547L5.73093 4H23.2687Z" fill="#FF6B00"/>
</svg>
